<svg width="168" height="56" viewBox="0 0 168 56" fill="none" xmlns="http://www.w3.org/2000/svg"><rect width="168" height="56" fill="#0C0D10"></rect><path d="M114.136 26.8813V30.0887H112.126V32.1921H114.136V39.3391C114.136 41.7795 115.24 42.7557 118.018 42.7557C118.506 42.7557 118.971 42.6976 119.377 42.6278V40.5477C119.029 40.5825 118.808 40.6058 118.424 40.6058C117.181 40.6058 116.635 40.0247 116.635 38.6999V32.1921H119.377V30.0887H116.635V26.8813H114.136Z" fill="white"></path><path d="M126.453 42.93C130.148 42.93 132.414 40.4547 132.414 36.3524C132.414 32.2734 130.137 29.7865 126.453 29.7865C122.757 29.7865 120.479 32.2734 120.479 36.3524C120.479 40.4547 122.746 42.93 126.453 42.93ZM126.453 40.7104C124.28 40.7104 123.059 39.1183 123.059 36.3524C123.059 33.6099 124.28 32.0062 126.453 32.0062C128.614 32.0062 129.846 33.6099 129.846 36.3524C129.846 39.1066 128.614 40.7104 126.453 40.7104Z" fill="white"></path><path d="M134.353 42.6859H136.852V35.2136C136.852 33.4355 138.188 32.2386 140.082 32.2386C140.524 32.2386 141.268 32.3199 141.477 32.3897V29.926C141.21 29.8563 140.733 29.8214 140.361 29.8214C138.711 29.8214 137.305 30.7278 136.945 31.9713H136.759V30.0306H134.353V42.6859Z" fill="white"></path><path d="M147.681 31.9132C149.528 31.9132 150.737 33.2031 150.795 35.1903H144.404C144.543 33.2147 145.833 31.9132 147.681 31.9132ZM150.784 39.2693C150.319 40.2571 149.284 40.8033 147.774 40.8033C145.775 40.8033 144.485 39.3972 144.404 37.1775V37.0381H153.34V36.1665C153.34 32.1921 151.214 29.7865 147.692 29.7865C144.125 29.7865 141.859 32.3548 141.859 36.3989C141.859 40.4431 144.078 42.93 147.704 42.93C150.598 42.93 152.62 41.5354 153.189 39.2693H150.784Z" fill="white"></path><path d="M97.7512 38.0125C97.9439 41.1201 100.534 43.1075 104.388 43.1075C108.507 43.1075 111.085 41.0237 111.085 37.6993C111.085 35.0856 109.615 33.6402 106.05 32.8091L104.135 32.3394C101.871 31.8094 100.955 31.0987 100.955 29.8581C100.955 28.2923 102.376 27.2684 104.508 27.2684C106.532 27.2684 107.929 28.2682 108.182 29.8701H110.808C110.651 26.9432 108.074 24.8835 104.545 24.8835C100.75 24.8835 98.221 26.9432 98.221 30.0388C98.221 32.5923 99.6543 34.11 102.798 34.8447L105.038 35.3867C107.339 35.9287 108.351 36.7237 108.351 38.0486C108.351 39.5904 106.761 40.7106 104.593 40.7106C102.268 40.7106 100.654 39.6627 100.425 38.0125H97.7512Z" fill="white"></path><path d="M71.8689 29.8214C70.149 29.8214 68.6615 30.6813 67.8945 32.1224H67.7086V30.0306H65.303V46.8928H67.8016V40.7685H67.9991C68.6615 42.1049 70.0909 42.8951 71.8922 42.8951C75.088 42.8951 77.1217 40.3733 77.1217 36.3524C77.1217 32.3315 75.088 29.8214 71.8689 29.8214ZM71.1601 40.6522C69.0683 40.6522 67.7551 39.0021 67.7551 36.3641C67.7551 33.7145 69.0683 32.0643 71.1717 32.0643C73.2867 32.0643 74.5534 33.6796 74.5534 36.3524C74.5534 39.0369 73.2867 40.6522 71.1601 40.6522Z" fill="white"></path><path d="M85.8645 29.8214C84.1445 29.8214 82.657 30.6813 81.89 32.1224H81.7041V30.0306H79.2985V46.8928H81.7971V40.7685H81.9946C82.657 42.1049 84.0864 42.8951 85.8877 42.8951C89.0835 42.8951 91.1172 40.3733 91.1172 36.3524C91.1172 32.3315 89.0835 29.8214 85.8645 29.8214ZM85.1556 40.6522C83.0638 40.6522 81.7506 39.0021 81.7506 36.3641C81.7506 33.7145 83.0638 32.0643 85.1672 32.0643C87.2822 32.0643 88.5489 33.6796 88.5489 36.3524C88.5489 39.0369 87.2822 40.6522 85.1556 40.6522Z" fill="white"></path><path d="M60.8202 42.6859H63.6869L57.4115 25.3051H54.5087L48.2333 42.6859H51.0036L52.6056 38.0727H59.2303L60.8202 42.6859ZM55.8216 28.4609H56.0263L58.5437 35.8083H53.2921L55.8216 28.4609Z" fill="white"></path><path d="M49.9116 12.1953V20.5799H52.9389C55.4374 20.5799 56.8842 19.0401 56.8842 16.3614C56.8842 13.7234 55.4258 12.1953 52.9389 12.1953H49.9116ZM51.2131 13.3806H52.7936C54.5309 13.3806 55.5594 14.4846 55.5594 16.3789C55.5594 18.3021 54.5484 19.3945 52.7936 19.3945H51.2131V13.3806Z" fill="white"></path><path d="M61.3153 20.7019C63.1631 20.7019 64.2962 19.4643 64.2962 17.4131C64.2962 15.3736 63.1573 14.1302 61.3153 14.1302C59.4676 14.1302 58.3287 15.3736 58.3287 17.4131C58.3287 19.4643 59.4618 20.7019 61.3153 20.7019ZM61.3153 19.5921C60.2288 19.5921 59.6187 18.796 59.6187 17.4131C59.6187 16.0418 60.2288 15.24 61.3153 15.24C62.3961 15.24 63.012 16.0418 63.012 17.4131C63.012 18.7902 62.3961 19.5921 61.3153 19.5921Z" fill="white"></path><path d="M73.9451 14.2522H72.6959L71.5686 19.0808H71.4699L70.1683 14.2522H68.9713L67.6698 19.0808H67.5768L66.4437 14.2522H65.177L66.9202 20.5799H68.2043L69.5059 15.9198H69.6047L70.912 20.5799H72.2078L73.9451 14.2522Z" fill="white"></path><path d="M75.3838 20.5799H76.6331V16.8786C76.6331 15.8908 77.22 15.2749 78.1438 15.2749C79.0677 15.2749 79.5093 15.7804 79.5093 16.7972V20.5799H80.7586V16.4834C80.7586 14.9785 79.98 14.1302 78.568 14.1302C77.6151 14.1302 76.9875 14.5543 76.6796 15.2574H76.5866V14.2522H75.3838V20.5799Z" fill="white"></path><path d="M82.726 20.5799H83.9753V11.7827H82.726V20.5799Z" fill="white"></path><path d="M88.6737 20.7019C90.5215 20.7019 91.6545 19.4643 91.6545 17.4131C91.6545 15.3736 90.5157 14.1302 88.6737 14.1302C86.826 14.1302 85.6871 15.3736 85.6871 17.4131C85.6871 19.4643 86.8202 20.7019 88.6737 20.7019ZM88.6737 19.5921C87.5871 19.5921 86.977 18.796 86.977 17.4131C86.977 16.0418 87.5871 15.24 88.6737 15.24C89.7545 15.24 90.3704 16.0418 90.3704 17.4131C90.3704 18.7902 89.7545 19.5921 88.6737 19.5921Z" fill="white"></path><path d="M95.3768 19.6328C94.6969 19.6328 94.203 19.3016 94.203 18.7321C94.203 18.1743 94.5982 17.878 95.4697 17.8199L97.0153 17.7211V18.2499C97.0153 19.0343 96.3181 19.6328 95.3768 19.6328ZM95.0572 20.6845C95.8881 20.6845 96.5795 20.3242 96.9572 19.6909H97.056V20.5799H98.2588V16.2568C98.2588 14.9204 97.364 14.1302 95.7777 14.1302C94.3425 14.1302 93.3198 14.8274 93.192 15.914H94.4006C94.54 15.4666 95.0223 15.2109 95.7196 15.2109C96.5737 15.2109 97.0153 15.5886 97.0153 16.2568V16.803L95.3012 16.9018C93.7963 16.9948 92.948 17.6514 92.948 18.7902C92.948 19.9465 93.837 20.6845 95.0572 20.6845Z" fill="white"></path><path d="M102.498 20.6845C103.37 20.6845 104.108 20.2719 104.485 19.5805H104.584V20.5799H105.781V11.7827H104.532V15.2574H104.439C104.096 14.5602 103.364 14.1476 102.498 14.1476C100.9 14.1476 99.8718 15.4143 99.8718 17.4131C99.8718 19.4178 100.889 20.6845 102.498 20.6845ZM102.853 15.269C103.899 15.269 104.555 16.1 104.555 17.4189C104.555 18.7437 103.904 19.563 102.853 19.563C101.795 19.563 101.162 18.7554 101.162 17.4131C101.162 16.0825 101.801 15.269 102.853 15.269Z" fill="white"></path><path d="M113.882 20.7019C115.73 20.7019 116.863 19.4643 116.863 17.4131C116.863 15.3736 115.724 14.1302 113.882 14.1302C112.034 14.1302 110.896 15.3736 110.896 17.4131C110.896 19.4643 112.029 20.7019 113.882 20.7019ZM113.882 19.5921C112.796 19.5921 112.186 18.796 112.186 17.4131C112.186 16.0418 112.796 15.24 113.882 15.24C114.963 15.24 115.579 16.0418 115.579 17.4131C115.579 18.7902 114.963 19.5921 113.882 19.5921Z" fill="white"></path><path d="M118.517 20.5799H119.766V16.8786C119.766 15.8908 120.353 15.2749 121.277 15.2749C122.201 15.2749 122.642 15.7804 122.642 16.7972V20.5799H123.891V16.4834C123.891 14.9785 123.113 14.1302 121.701 14.1302C120.748 14.1302 120.12 14.5543 119.812 15.2574H119.719V14.2522H118.517V20.5799Z" fill="white"></path><path d="M129.645 12.6775V14.2812H128.64V15.333H129.645V18.9064C129.645 20.1267 130.197 20.6147 131.586 20.6147C131.83 20.6147 132.062 20.5857 132.266 20.5508V19.5107C132.091 19.5282 131.981 19.5398 131.789 19.5398C131.167 19.5398 130.894 19.2493 130.894 18.5869V15.333H132.266V14.2812H130.894V12.6775H129.645Z" fill="white"></path><path d="M133.943 20.5799H135.192V16.8844C135.192 15.9256 135.761 15.2807 136.784 15.2807C137.667 15.2807 138.138 15.792 138.138 16.803V20.5799H139.387V16.4951C139.387 14.9901 138.556 14.136 137.208 14.136C136.255 14.136 135.587 14.5602 135.279 15.269H135.18V11.7827H133.943V20.5799Z" fill="white"></path><path d="M143.894 15.1935C144.818 15.1935 145.422 15.8385 145.451 16.8321H142.255C142.325 15.8443 142.97 15.1935 143.894 15.1935ZM145.445 18.8716C145.213 19.3655 144.696 19.6386 143.94 19.6386C142.941 19.6386 142.296 18.9355 142.255 17.8257V17.756H146.723V17.3202C146.723 15.333 145.66 14.1302 143.899 14.1302C142.116 14.1302 140.983 15.4143 140.983 17.4364C140.983 19.4584 142.092 20.7019 143.905 20.7019C145.352 20.7019 146.363 20.0046 146.648 18.8716H145.445Z" fill="white"></path><path d="M34.6766 28.4211C34.7069 26.0677 35.9708 23.8409 37.9758 22.6082C36.7109 20.8018 34.5923 19.6564 32.3881 19.5875C30.0372 19.3407 27.7581 20.9942 26.5601 20.9942C25.3389 20.9942 23.4944 19.612 21.5082 19.6529C18.9192 19.7365 16.5057 21.2084 15.2461 23.4719C12.5385 28.1597 14.5581 35.0491 17.1518 38.8384C18.4494 40.6939 19.966 42.7665 21.9504 42.693C23.8923 42.6125 24.6176 41.4547 26.9616 41.4547C29.2839 41.4547 29.9643 42.693 31.989 42.6463C34.0727 42.6124 35.3856 40.7825 36.6377 38.9095C37.5701 37.5874 38.2875 36.1262 38.7635 34.58C36.3147 33.5443 34.6794 31.0799 34.6766 28.4211Z" fill="white"></path><path d="M30.8522 17.0955C31.9884 15.7316 32.5481 13.9785 32.4126 12.2086C30.6768 12.3909 29.0734 13.2205 27.922 14.5321C26.796 15.8135 26.21 17.5357 26.3208 19.238C28.0571 19.2559 29.7642 18.4488 30.8522 17.0955Z" fill="white"></path></svg>