<svg width="189" height="56" viewBox="0 0 189 56" fill="none" xmlns="http://www.w3.org/2000/svg"><rect width="189" height="56" fill="black"></rect><path d="M95.3906 30.4516C92.0978 30.4516 89.414 32.9562 89.414 36.4058C89.414 39.8344 92.0978 42.36 95.3906 42.36C98.6848 42.36 101.369 39.8344 101.369 36.4058C101.367 32.9562 98.6834 30.4516 95.3906 30.4516ZM95.3906 40.0164C93.586 40.0164 92.0306 38.5282 92.0306 36.4072C92.0306 34.2638 93.5874 32.798 95.3906 32.798C97.1952 32.798 98.7506 34.2638 98.7506 36.4072C98.7506 38.5268 97.1952 40.0164 95.3906 40.0164ZM82.351 30.4516C79.0582 30.4516 76.3744 32.9562 76.3744 36.4058C76.3744 39.8344 79.0582 42.36 82.351 42.36C85.6452 42.36 88.329 39.8344 88.329 36.4058C88.329 32.9562 85.6452 30.4516 82.351 30.4516ZM82.351 40.0164C80.5464 40.0164 78.991 38.5282 78.991 36.4072C78.991 34.2638 80.5478 32.798 82.351 32.798C84.1556 32.798 85.711 34.2638 85.711 36.4072C85.7124 38.5268 84.1556 40.0164 82.351 40.0164ZM66.8418 32.28V34.8056H72.887C72.7064 36.2266 72.2332 37.264 71.5108 37.985C70.6316 38.8642 69.2554 39.8344 66.8418 39.8344C63.1206 39.8344 60.2114 36.8342 60.2114 33.113C60.2114 29.3918 63.1206 26.3916 66.8418 26.3916C68.8494 26.3916 70.3152 27.1812 71.3974 28.1962L73.1796 26.414C71.6676 24.9706 69.6614 23.866 66.8418 23.866C61.7444 23.866 57.459 28.0156 57.459 33.113C57.459 38.2104 61.7444 42.36 66.8418 42.36C69.5928 42.36 71.669 41.457 73.2916 39.7658C74.9604 38.097 75.4798 35.7506 75.4798 33.8564C75.4798 33.2712 75.435 32.7294 75.344 32.2786H66.8418V32.28ZM130.273 34.2414C129.777 32.9114 128.265 30.4516 125.176 30.4516C122.108 30.4516 119.559 32.8652 119.559 36.4058C119.559 39.7434 122.086 42.36 125.468 42.36C128.197 42.36 129.776 40.6912 130.431 39.721L128.401 38.3672C127.725 39.3598 126.8 40.0136 125.468 40.0136C124.138 40.0136 123.19 39.4046 122.581 38.209L130.543 34.9162L130.273 34.2414ZM122.153 36.2266C122.086 33.925 123.935 32.7532 125.267 32.7532C126.304 32.7532 127.183 33.2726 127.477 34.016L122.153 36.2266ZM115.681 42.0002H118.296V24.4988H115.681V42.0002ZM111.394 31.783H111.304C110.718 31.083 109.589 30.4516 108.17 30.4516C105.192 30.4516 102.463 33.0682 102.463 36.4296C102.463 39.7672 105.192 42.3614 108.17 42.3614C109.591 42.3614 110.718 41.73 111.304 41.009H111.394V41.8658C111.394 44.1436 110.176 45.3616 108.215 45.3616C106.613 45.3616 105.62 44.2122 105.214 43.242L102.937 44.1898C103.59 45.7676 105.326 47.708 108.215 47.708C111.282 47.708 113.876 45.9034 113.876 41.5046V30.8142H111.395V31.783H111.394ZM108.395 40.0164C106.591 40.0164 105.08 38.5044 105.08 36.4296C105.08 34.331 106.591 32.798 108.395 32.798C110.176 32.798 111.575 34.331 111.575 36.4296C111.575 38.5044 110.176 40.0164 108.395 40.0164ZM142.529 24.4988H136.269V42.0002H138.88V35.3698H142.527C145.422 35.3698 148.27 33.274 148.27 29.935C148.27 26.596 145.424 24.4988 142.529 24.4988ZM142.596 32.9338H138.88V26.9348H142.596C144.549 26.9348 145.658 28.5518 145.658 29.935C145.658 31.2902 144.549 32.9338 142.596 32.9338ZM158.741 30.4208C156.849 30.4208 154.891 31.2538 154.08 33.1004L156.398 34.0678C156.894 33.1004 157.818 32.784 158.785 32.784C160.136 32.784 161.51 33.5946 161.532 35.0352V35.2158C161.059 34.9456 160.045 34.541 158.808 34.541C156.309 34.541 153.764 35.9144 153.764 38.4806C153.764 40.8228 155.813 42.3306 158.109 42.3306C159.865 42.3306 160.834 41.5424 161.441 40.6184H161.531V41.9694H164.054V35.2592C164.055 32.154 161.734 30.4208 158.741 30.4208ZM158.424 40.0122C157.57 40.0122 156.376 39.5838 156.376 38.5254C156.376 37.1744 157.863 36.6564 159.147 36.6564C160.293 36.6564 160.835 36.9042 161.532 37.2416C161.329 38.8642 159.933 40.0122 158.424 40.0122ZM173.24 30.803L170.246 38.391H170.156L167.048 30.803H164.234L168.895 41.408L166.238 47.3076H168.962L176.145 30.803H173.24ZM149.712 42.0002H152.323V24.4988H149.712V42.0002Z" fill="white"></path><path d="M66.385 14.3401C66.385 15.5133 66.0378 16.4471 65.342 17.1443C64.5524 17.9731 63.522 18.3875 62.2564 18.3875C61.044 18.3875 60.0122 17.9675 59.1652 17.1275C58.3168 16.2861 57.8926 15.2445 57.8926 14.0013C57.8926 12.7567 58.3168 11.7151 59.1652 10.8751C60.0122 10.0337 61.044 9.61372 62.2564 9.61372C62.8584 9.61372 63.4338 9.73132 63.9798 9.96512C64.5272 10.2003 64.9654 10.5125 65.293 10.9031L64.5552 11.6423C63.9994 10.9773 63.2336 10.6455 62.255 10.6455C61.3702 10.6455 60.6058 10.9563 59.9604 11.5779C59.315 12.1995 58.993 13.0073 58.993 13.9999C58.993 14.9925 59.315 15.8003 59.9604 16.4219C60.6058 17.0435 61.3702 17.3543 62.255 17.3543C63.193 17.3543 63.9756 17.0421 64.6014 16.4163C65.0074 16.0089 65.2426 15.4419 65.3056 14.7153H62.255V13.7059H66.3248C66.3668 13.9257 66.385 14.1371 66.385 14.3401Z" fill="white"></path><path d="M72.8391 10.8318H69.0143V13.4946H72.4639V14.504H69.0143V17.1668H72.8391V18.2H67.9349V9.8H72.8391V10.8318Z" fill="white"></path><path d="M77.3903 18.2H76.311V10.8318H73.9646V9.8H79.7367V10.8318H77.3903V18.2Z" fill="white"></path><path d="M83.9129 18.2V9.8H84.9923V18.2H83.9129Z" fill="white"></path><path d="M89.7791 18.2H88.6997V10.8318H86.3533V9.8H92.1255V10.8318H89.7791V18.2Z" fill="white"></path><path d="M103.052 17.115C102.226 17.9634 101.2 18.3876 99.9722 18.3876C98.7444 18.3876 97.7182 17.9634 96.8936 17.115C96.0676 16.2666 95.656 15.2278 95.656 14C95.656 12.7722 96.0676 11.7334 96.8936 10.885C97.7182 10.0366 98.7444 9.61098 99.9722 9.61098C101.193 9.61098 102.218 10.038 103.047 10.8906C103.875 11.7432 104.29 12.7792 104.29 14C104.29 15.2278 103.877 16.2666 103.052 17.115ZM97.6902 16.4108C98.3118 17.0408 99.072 17.3544 99.9722 17.3544C100.872 17.3544 101.634 17.0394 102.254 16.4108C102.876 15.7808 103.188 14.9772 103.188 14C103.188 13.0228 102.876 12.2192 102.254 11.5892C101.634 10.9592 100.872 10.6456 99.9722 10.6456C99.072 10.6456 98.3118 10.9606 97.6902 11.5892C97.07 12.2192 96.7578 13.0228 96.7578 14C96.7578 14.9772 97.07 15.7808 97.6902 16.4108Z" fill="white"></path><path d="M105.805 18.2V9.8H107.118L111.2 16.3338H111.246L111.2 14.7154V9.8H112.28V18.2H111.153L106.881 11.3484H106.835L106.881 12.9668V18.2H105.805Z" fill="white"></path><path d="M66.385 14.3401C66.385 15.5133 66.0378 16.4471 65.342 17.1443C64.5524 17.9731 63.522 18.3875 62.2564 18.3875C61.044 18.3875 60.0122 17.9675 59.1652 17.1275C58.3168 16.2861 57.8926 15.2445 57.8926 14.0013C57.8926 12.7567 58.3168 11.7151 59.1652 10.8751C60.0122 10.0337 61.044 9.61372 62.2564 9.61372C62.8584 9.61372 63.4338 9.73132 63.9798 9.96512C64.5272 10.2003 64.9654 10.5125 65.293 10.9031L64.5552 11.6423C63.9994 10.9773 63.2336 10.6455 62.255 10.6455C61.3702 10.6455 60.6058 10.9563 59.9604 11.5779C59.315 12.1995 58.993 13.0073 58.993 13.9999C58.993 14.9925 59.315 15.8003 59.9604 16.4219C60.6058 17.0435 61.3702 17.3543 62.255 17.3543C63.193 17.3543 63.9756 17.0421 64.6014 16.4163C65.0074 16.0089 65.2426 15.4419 65.3056 14.7153H62.255V13.7059H66.3248C66.3668 13.9257 66.385 14.1371 66.385 14.3401Z" stroke="white" stroke-width="0.2" stroke-miterlimit="10"></path><path d="M72.8391 10.8318H69.0143V13.4946H72.4639V14.504H69.0143V17.1668H72.8391V18.2H67.9349V9.8H72.8391V10.8318Z" stroke="white" stroke-width="0.2" stroke-miterlimit="10"></path><path d="M77.3903 18.2H76.311V10.8318H73.9646V9.8H79.7367V10.8318H77.3903V18.2Z" stroke="white" stroke-width="0.2" stroke-miterlimit="10"></path><path d="M83.9129 18.2V9.8H84.9923V18.2H83.9129Z" stroke="white" stroke-width="0.2" stroke-miterlimit="10"></path><path d="M89.7791 18.2H88.6997V10.8318H86.3533V9.8H92.1255V10.8318H89.7791V18.2Z" stroke="white" stroke-width="0.2" stroke-miterlimit="10"></path><path d="M103.052 17.115C102.226 17.9634 101.2 18.3876 99.9722 18.3876C98.7444 18.3876 97.7182 17.9634 96.8936 17.115C96.0676 16.2666 95.656 15.2278 95.656 14C95.656 12.7722 96.0676 11.7334 96.8936 10.885C97.7182 10.0366 98.7444 9.61098 99.9722 9.61098C101.193 9.61098 102.218 10.038 103.047 10.8906C103.875 11.7432 104.29 12.7792 104.29 14C104.29 15.2278 103.877 16.2666 103.052 17.115ZM97.6902 16.4108C98.3118 17.0408 99.072 17.3544 99.9722 17.3544C100.872 17.3544 101.634 17.0394 102.254 16.4108C102.876 15.7808 103.188 14.9772 103.188 14C103.188 13.0228 102.876 12.2192 102.254 11.5892C101.634 10.9592 100.872 10.6456 99.9722 10.6456C99.072 10.6456 98.3118 10.9606 97.6902 11.5892C97.07 12.2192 96.7578 13.0228 96.7578 14C96.7578 14.9772 97.07 15.7808 97.6902 16.4108Z" stroke="white" stroke-width="0.2" strokeWiterlimit="10"></path><path d="M105.805 18.2V9.8H107.118L111.2 16.3338H111.246L111.2 14.7154V9.8H112.28V18.2H111.153L106.881 11.3484H106.835L106.881 12.9668V18.2H105.805Z" stroke="white" stroke-width="0.2" stroke-miterlimit="10"></path><g filter="url(#filter0_ii_1122_4193)"><path d="M14.6111 10.5532C14.2037 10.9844 13.9629 11.6536 13.9629 12.5202V43.4826C13.9629 44.3506 14.2037 45.0184 14.6111 45.4496L14.7147 45.5504L32.0593 28.2058V28.0014V27.797L14.7147 10.451L14.6111 10.5532Z" fill="url(#paint0_linear_1122_4193)"></path><path d="M37.8392 33.9892L32.0586 28.2058V28.0014V27.797L37.8406 22.015L37.9708 22.0892L44.821 25.9812C46.7768 27.0928 46.7768 28.9114 44.821 30.0244L37.9708 33.9164L37.8392 33.9892Z" fill="url(#paint1_linear_1122_4193)"></path><g filter="url(#filter1_i_1122_4193)"><path d="M37.9717 33.915L32.0581 28.0014L14.6113 45.4496C15.2553 46.1328 16.3207 46.2168 17.5205 45.5364L37.9717 33.915Z" fill="url(#paint2_linear_1122_4193)"></path></g><path d="M37.9717 22.0878L17.5205 10.4678C16.3207 9.786 15.2553 9.8714 14.6113 10.5546L32.0595 28.0028L37.9717 22.0878Z" fill="url(#paint3_linear_1122_4193)"></path></g><defs><filter id="filter0_ii_1122_4193" x="13.9629" y="9.9973" width="32.3242" height="36.0091" filterUnits="userSpaceOnUse" colorInterpolation-filters="sRGB"><feFlood flood-opacity="0" result="BackgroundImageFix"></feFlood><feBlend mode="normal" in="SourceGraphic" in2="BackgroundImageFix" result="shape"></feBlend><feColorMatrix in="SourceAlpha" type="matrix" values="0 0 0 0 0 0 0 0 0 0 0 0 0 0 0 0 0 0 127 0" result="hardAlpha"></feColorMatrix><feOffset dy="-0.15"></feOffset><feComposite in2="hardAlpha" operator="arithmetic" k2="-1" k3="1"></feComposite><feColorMatrix type="matrix" values="0 0 0 0 0 0 0 0 0 0 0 0 0 0 0 0 0 0 0.12 0"></feColorMatrix><feBlend mode="normal" in2="shape" result="effect1_innerShadow_1122_4193"></feBlend><feColorMatrix in="SourceAlpha" type="matrix" values="0 0 0 0 0 0 0 0 0 0 0 0 0 0 0 0 0 0 127 0" result="hardAlpha"></feColorMatrix><feOffset dy="0.15"></feOffset><feComposite in2="hardAlpha" operator="arithmetic" k2="-1" k3="1"></feComposite><feColorMatrix type="matrix" values="0 0 0 0 1 0 0 0 0 1 0 0 0 0 1 0 0 0 0.25 0"></feColorMatrix><feBlend mode="normal" in2="effect1_innerShadow_1122_4193" result="effect2_innerShadow_1122_4193"></feBlend></filter><filter id="filter1_i_1122_4193" x="14.6113" y="28.0014" width="23.3613" height="18.005" filterUnits="userSpaceOnUse" color-interpolation-filters="sRGB"><feFlood flood-opacity="0" result="BackgroundImageFix"></feFlood><feBlend mode="normal" in="SourceGraphic" in2="BackgroundImageFix" result="shape"></feBlend><feColorMatrix in="SourceAlpha" type="matrix" values="0 0 0 0 0 0 0 0 0 0 0 0 0 0 0 0 0 0 127 0" result="hardAlpha"></feColorMatrix><feOffset dy="-0.15"></feOffset><feComposite in2="hardAlpha" operator="arithmetic" k2="-1" k3="1"></feComposite><feColorMatrix type="matrix" values="0 0 0 0 0 0 0 0 0 0 0 0 0 0 0 0 0 0 0.08 0"></feColorMatrix><feBlend mode="normal" in2="shape" result="effect1_innerShadow_1122_4193"></feBlend></filter><linearGradient id="paint0_linear_1122_4193" x1="30.5218" y1="12.1926" x2="7.02701" y2="35.6874" gradientUnits="userSpaceOnUse"><stop stop-color="#00A0FF"></stop><stop offset="0.0066" stop-color="#00A1FF"></stop><stop offset="0.2601" stop-color="#00BEFF"></stop><stop offset="0.5122" stop-color="#00D2FF"></stop><stop offset="0.7604" stop-color="#00DFFF"></stop><stop offset="1" stop-color="#00E3FF"></stop></linearGradient><linearGradient id="paint1_linear_1122_4193" x1="47.3669" y1="28.0014" x2="13.4926" y2="28.0014" gradientUnits="userSpaceOnUse"><stop stop-color="#FFE000"></stop><stop offset="0.4087" stop-color="#FFBD00"></stop><stop offset="0.7754" stop-color="#FFA500"></stop><stop offset="1" stop-color="#FF9C00"></stop></linearGradient><linearGradient id="paint2_linear_1122_4193" x1="34.7603" y1="31.2129" x2="2.89837" y2="63.0748" gradientUnits="userSpaceOnUse"><stop stop-color="#FF3A44"></stop><stop offset="1" stop-color="#C31162"></stop></linearGradient><linearGradient id="paint3_linear_1122_4193" x1="10.2173" y1="0.247523" x2="24.4445" y2="14.4747" gradientUnits="userSpaceOnUse"><stop stop-color="#32A071"></stop><stop offset="0.0685" stop-color="#2DA771"></stop><stop offset="0.4762" stop-color="#15CF74"></stop><stop offset="0.8009" stop-color="#06E775"></stop><stop offset="1" stop-color="#00F076"></stop></linearGradient></defs></svg>